<svg xmlns="http://www.w3.org/2000/svg" viewBox="0 0 32 32">
  <circle cx="16" cy="16" r="15" fill="#F05A28"/>
  <path d="M16 7C11.029 7 7 11.029 7 16s4.029 9 9 9 9-4.029 9-9-4.029-9-9-9zm4.012 5.212c.216 0 .392.176.392.392a.393.393 0 01-.392.392.393.393 0 01-.392-.392.393.393 0 01.392-.392zm-1.152 1.576a.784.784 0 110 1.568.784.784 0 110-1.568zM16 11.076c.765 0 1.486.168 2.136.468.06.028.12.056.178.084.088.04.132.14.108.232a5.564 5.564 0 00-.216 1.532c0 1.732.676 3.348 1.896 4.56A6.431 6.431 0 0022.654 20c.08 0 .16-.004.24-.008.092-.004.172.064.188.156A5.903 5.903 0 0116 23.056a5.903 5.903 0 01-5.896-5.896A5.903 5.903 0 0116 11.264v-.188z" fill="#FFF"/>
</svg>